<?xml version="1.0" encoding="UTF-8"?>
<!DOCTYPE svg PUBLIC "-//W3C//DTD SVG 1.1//EN" "http://www.w3.org/Graphics/SVG/1.1/DTD/svg11.dtd">
<!-- Creator: CorelDRAW 2019 (64-Bit) -->
<svg xmlns="http://www.w3.org/2000/svg" xml:space="preserve" width="306px" height="100px" version="1.1" style="shape-rendering:geometricPrecision; text-rendering:geometricPrecision; image-rendering:optimizeQuality; fill-rule:evenodd; clip-rule:evenodd"
viewBox="0 0 306 100"
 xmlns:xlink="http://www.w3.org/1999/xlink"
 xmlns:xodm="http://www.corel.com/coreldraw/odm/2003">
 <defs>
  <style type="text/css">
   <![CDATA[
    .fil0 {fill:#D9DADA}
    .fil3 {fill:#EC671F}
    .fil2 {fill:#B9CE19}
    .fil1 {fill:#00A0E3}
    .fil4 {fill:#2B2A29;fill-rule:nonzero}
   ]]>
  </style>
 </defs>
 <g id="Layer_x0020_1">
  <metadata id="CorelCorpID_0Corel-Layer"/>
  <path class="fil0" d="M5.75 2.96l71.13 0c3.34,0 6.07,2.73 6.07,6.07l0 81.14c0,3.34 -2.73,6.07 -6.07,6.07l-71.13 0c-3.33,0 -6.06,-2.73 -6.06,-6.07l0 -81.14c0,-3.34 2.73,-6.07 6.06,-6.07z"/>
  <path class="fil1" d="M70.69 42.28c-1.24,2.91 -1.66,11.22 -17.86,17.87 -10.81,2.91 -20.36,-1.25 -26.18,-6.65 -13.71,-13.71 -8.73,-37.39 11.22,-44.04 -6.65,0 -14.55,5.81 -17.04,9.14 -17.87,20.77 -1.66,48.61 19.95,48.61l2.07 0c14.13,0 26.6,-11.63 27.84,-24.93z"/>
  <path class="fil2" d="M58.64 54.01c-4.57,1.24 -6.23,2.9 -12.05,2.49 -20.77,-1.25 -28.67,-28.26 -11.22,-40.31 8.73,-6.23 14.96,-3.74 22.03,-2.08 -0.42,-0.41 -2.08,-1.24 -2.91,-1.66 -7.48,-3.74 -16.21,-3.32 -23.27,1.25 -6.23,3.74 -12.05,11.22 -11.64,22.02 0.84,21.61 27.01,29.09 39.06,18.29z"/>
  <path class="fil3" d="M44.87 54.69c-12.88,-2.91 -18.28,-19.95 -8.72,-30.34 6.64,-7.06 17.86,-7.89 25.76,-0.83 2.49,2.08 2.91,4.16 4.98,7.48 0,-3.74 -2.9,-7.89 -4.57,-9.56 -5.4,-5.81 -12.88,-8.31 -20.77,-6.23 -10.81,3.33 -17.45,14.96 -12.88,27.01 2.07,5.4 8.72,12.47 16.2,12.47z"/>
  <path class="fil4" d="M7.28 80.79c0,-3.08 1.03,-5.66 3.1,-7.75 2.07,-2.09 4.65,-3.14 7.73,-3.14 0.97,0 1.91,0.1 2.8,0.29 0.89,0.19 1.62,0.41 2.2,0.67 0.58,0.26 1.09,0.52 1.52,0.78 0.43,0.26 0.74,0.48 0.94,0.66l0.3 0.3 -2.22 2.82c-0.16,-0.14 -0.39,-0.31 -0.7,-0.52 -0.31,-0.21 -0.94,-0.49 -1.89,-0.84 -0.95,-0.35 -1.91,-0.53 -2.86,-0.53 -1.9,0 -3.52,0.68 -4.85,2.03 -1.33,1.35 -1.99,3.08 -1.99,5.2 0,2.26 0.67,4.07 2.02,5.44 1.35,1.37 3.01,2.06 4.97,2.06 0.99,0 1.94,-0.19 2.84,-0.56 0.9,-0.37 1.55,-0.74 1.95,-1.12l0.6 -0.54 0 -1.59c0,-0.44 -0.22,-0.66 -0.66,-0.66l-1.29 0 0 -3.33 3.45 0c0.72,0 1.24,0.16 1.56,0.48 0.32,0.32 0.48,0.83 0.48,1.53l0 9.08 -3.36 0 0 -1.02 0.03 -0.89 -0.06 0c-0.06,0.05 -0.15,0.14 -0.27,0.24 -0.12,0.09 -0.38,0.28 -0.79,0.55 -0.41,0.27 -0.84,0.5 -1.29,0.7 -0.45,0.2 -1.03,0.38 -1.74,0.54 -0.71,0.16 -1.43,0.24 -2.17,0.24 -2.88,0 -5.33,-1.02 -7.34,-3.05 -2.01,-2.04 -3.01,-4.73 -3.01,-8.07z"/>
  <path class="fil4" d="M32.92 80.73c0,-3.08 1.03,-5.65 3.09,-7.72 2.05,-2.07 4.62,-3.11 7.7,-3.11 0.76,0 1.57,0.09 2.43,0.26 0.86,0.17 1.73,0.42 2.61,0.76 0.88,0.34 1.6,0.84 2.17,1.49 0.57,0.65 0.86,1.4 0.86,2.26l0 2.37 -3.57 0 0 -1.2c0,-0.72 -0.46,-1.28 -1.39,-1.68 -0.93,-0.4 -1.94,-0.6 -3.02,-0.6 -1.96,0 -3.58,0.65 -4.87,1.95 -1.29,1.3 -1.93,3.04 -1.93,5.22 0,2.08 0.67,3.85 2.01,5.32 1.33,1.47 2.97,2.21 4.91,2.21 0.76,0 1.5,-0.1 2.21,-0.29 0.71,-0.19 1.31,-0.42 1.8,-0.7 0.49,-0.28 0.93,-0.56 1.32,-0.84 0.39,-0.28 0.67,-0.51 0.85,-0.69l0.27 -0.3 2.07 2.82c-0.08,0.1 -0.2,0.23 -0.36,0.39 -0.16,0.16 -0.52,0.45 -1.08,0.87 -0.56,0.41 -1.15,0.79 -1.75,1.12 -0.61,0.33 -1.41,0.62 -2.39,0.88 -0.98,0.26 -1.98,0.39 -3,0.39 -3.22,0 -5.84,-1.06 -7.88,-3.19 -2.04,-2.13 -3.06,-4.79 -3.06,-7.99z"/>
  <path class="fil4" d="M57.45 80.73c0,-3.08 1.03,-5.65 3.08,-7.72 2.06,-2.07 4.63,-3.11 7.71,-3.11 0.76,0 1.57,0.09 2.43,0.26 0.86,0.17 1.73,0.42 2.61,0.76 0.88,0.34 1.6,0.84 2.17,1.49 0.57,0.65 0.86,1.4 0.86,2.26l0 2.37 -3.57 0 0 -1.2c0,-0.72 -0.47,-1.28 -1.39,-1.68 -0.93,-0.4 -1.94,-0.6 -3.02,-0.6 -1.96,0 -3.58,0.65 -4.87,1.95 -1.29,1.3 -1.94,3.04 -1.94,5.22 0,2.08 0.67,3.85 2.01,5.32 1.34,1.47 2.98,2.21 4.92,2.21 0.76,0 1.5,-0.1 2.21,-0.29 0.7,-0.19 1.3,-0.42 1.79,-0.7 0.49,-0.28 0.93,-0.56 1.32,-0.84 0.39,-0.28 0.68,-0.51 0.86,-0.69l0.27 -0.3 2.07 2.82c-0.08,0.1 -0.2,0.23 -0.36,0.39 -0.16,0.16 -0.52,0.45 -1.08,0.87 -0.56,0.41 -1.15,0.79 -1.76,1.12 -0.61,0.33 -1.4,0.62 -2.38,0.88 -0.98,0.26 -1.98,0.39 -3,0.39 -3.22,0 -5.85,-1.06 -7.89,-3.19 -2.03,-2.13 -3.05,-4.79 -3.05,-7.99z"/>
  <path class="fil4" d="M118.22 36.39c-1.22,0.67 -2.6,1.19 -4.13,1.55 -1.53,0.36 -3.13,0.54 -4.78,0.54 -1.8,0 -3.44,-0.26 -4.92,-0.79 -1.49,-0.53 -2.76,-1.29 -3.81,-2.28 -1.06,-1 -1.88,-2.22 -2.47,-3.67 -0.58,-1.45 -0.88,-3.09 -0.88,-4.94 0,-1.84 0.29,-3.5 0.87,-4.96 0.58,-1.46 1.4,-2.7 2.46,-3.74 1.06,-1.03 2.33,-1.81 3.83,-2.35 1.48,-0.54 3.15,-0.81 4.99,-0.81 0.72,0 1.46,0.04 2.23,0.13 0.76,0.08 1.52,0.2 2.26,0.36 0.75,0.15 1.46,0.35 2.14,0.59 0.68,0.24 1.29,0.53 1.82,0.86l-1.8 4.78c-2.16,-1.24 -4.31,-1.87 -6.47,-1.87 -2.04,0 -3.65,0.62 -4.83,1.85 -1.19,1.24 -1.78,2.91 -1.78,5.02 0,2.25 0.55,4 1.64,5.26 1.1,1.26 2.72,1.89 4.87,1.89 0.65,0 1.29,-0.07 1.92,-0.2 0.64,-0.13 1.19,-0.29 1.67,-0.48l0 -3.31 -5.54 0 0 -4.56 10.71 0 0 11.13z"/>
  <path class="fil4" d="M140.03 29.28c0,1.39 -0.24,2.65 -0.73,3.79 -0.49,1.14 -1.16,2.1 -2.01,2.89 -0.86,0.8 -1.84,1.41 -2.97,1.84 -1.13,0.43 -2.34,0.65 -3.63,0.65 -1.29,0 -2.5,-0.2 -3.61,-0.58 -1.11,-0.38 -2.09,-0.95 -2.93,-1.71 -0.84,-0.75 -1.5,-1.69 -1.98,-2.82 -0.48,-1.12 -0.72,-2.44 -0.72,-3.95 0,-1.42 0.25,-2.69 0.74,-3.81 0.49,-1.13 1.16,-2.09 2.01,-2.88 0.85,-0.79 1.84,-1.39 2.97,-1.81 1.12,-0.42 2.32,-0.63 3.59,-0.63 1.3,0 2.51,0.19 3.63,0.56 1.13,0.37 2.11,0.93 2.95,1.69 0.84,0.75 1.5,1.69 1.98,2.82 0.48,1.12 0.71,2.44 0.71,3.95zm-5.42 0.11c0,-1.5 -0.33,-2.71 -0.97,-3.64 -0.65,-0.93 -1.63,-1.39 -2.95,-1.39 -1.29,0 -2.26,0.46 -2.89,1.38 -0.64,0.91 -0.95,2.09 -0.95,3.54 0,1.5 0.32,2.71 0.98,3.65 0.66,0.94 1.65,1.42 2.97,1.42 1.29,0 2.25,-0.47 2.87,-1.4 0.63,-0.93 0.94,-2.11 0.94,-3.56z"/>
  <path class="fil4" d="M158.79 26.84c0,2.15 -0.7,3.77 -2.12,4.85 -1.41,1.08 -3.36,1.62 -5.86,1.62l-1.76 0 0 4.63 -5.49 0 0 -17.21 7.54 0c2.49,0 4.4,0.54 5.72,1.63 1.31,1.09 1.97,2.58 1.97,4.48zm-5.24 0.14c0,-0.81 -0.27,-1.43 -0.81,-1.85 -0.54,-0.42 -1.31,-0.63 -2.32,-0.63l-1.58 0 0 5.21 1.44 -0.07c1.1,-0.05 1.92,-0.28 2.46,-0.68 0.54,-0.41 0.81,-1.07 0.81,-1.98z"/>
  <path class="fil4" d="M178.52 37.94l-5.35 0 -1.12 -3.2 -5.89 0 -0.97 3.2 -5.46 0 5.89 -17.21 7.12 0 5.78 17.21zm-9.41 -13.55l-2.09 6.72 4.17 0 -2.08 -6.72z"/>
  <polygon class="fil4" points="181.36,37.94 181.36,20.73 186.86,20.73 186.86,33.49 194.55,33.49 194.55,37.94 "/>
  <path class="fil4" d="M215.03 37.94l-5.35 0 -1.11 -3.2 -5.9 0 -0.97 3.2 -5.46 0 5.89 -17.21 7.12 0 5.78 17.21zm-9.41 -13.55l-2.08 6.72 4.16 0 -2.08 -6.72z"/>
  <polygon class="fil4" points="229.98,20.73 234.98,20.73 234.98,38.12 229.25,38.12 222.87,28.27 222.87,37.94 217.87,37.94 217.87,20.73 223.64,20.73 230.02,30.43 "/>
  <path class="fil4" d="M107.14 52.33c-0.5,-0.3 -1.05,-0.54 -1.64,-0.72 -0.59,-0.17 -1.18,-0.26 -1.79,-0.26 -1.18,0 -2.12,0.37 -2.82,1.11 -0.7,0.74 -1.05,1.75 -1.05,3.05 0,1.3 0.34,2.33 1.02,3.08 0.68,0.76 1.64,1.13 2.87,1.13 0.67,0 1.3,-0.1 1.91,-0.3 0.61,-0.2 1.17,-0.47 1.68,-0.8l0.72 3.06c-0.54,0.29 -1.22,0.53 -2.04,0.71 -0.82,0.18 -1.63,0.27 -2.42,0.27 -1.09,0 -2.08,-0.16 -2.96,-0.47 -0.88,-0.31 -1.64,-0.76 -2.26,-1.36 -0.63,-0.59 -1.12,-1.33 -1.46,-2.2 -0.35,-0.88 -0.52,-1.89 -0.52,-3.04 0,-1.1 0.17,-2.09 0.51,-2.98 0.34,-0.88 0.82,-1.64 1.46,-2.26 0.63,-0.62 1.4,-1.1 2.3,-1.43 0.91,-0.34 1.92,-0.51 3.04,-0.51 0.82,0 1.62,0.1 2.4,0.29 0.77,0.19 1.47,0.43 2.1,0.74l-1.05 2.89z"/>
  <path class="fil4" d="M120.86 57.09c0,0.84 -0.15,1.61 -0.44,2.3 -0.3,0.68 -0.71,1.27 -1.22,1.75 -0.51,0.48 -1.11,0.85 -1.79,1.11 -0.69,0.26 -1.42,0.39 -2.2,0.39 -0.78,0 -1.51,-0.12 -2.19,-0.35 -0.67,-0.23 -1.26,-0.58 -1.77,-1.03 -0.51,-0.46 -0.9,-1.03 -1.2,-1.71 -0.29,-0.68 -0.43,-1.48 -0.43,-2.39 0,-0.86 0.15,-1.63 0.45,-2.31 0.29,-0.68 0.7,-1.26 1.21,-1.74 0.52,-0.48 1.12,-0.84 1.8,-1.1 0.68,-0.25 1.4,-0.38 2.17,-0.38 0.79,0 1.52,0.12 2.2,0.34 0.68,0.23 1.28,0.57 1.78,1.02 0.51,0.46 0.91,1.03 1.2,1.71 0.29,0.68 0.43,1.48 0.43,2.39zm-3.28 0.07c0,-0.91 -0.2,-1.64 -0.59,-2.2 -0.39,-0.56 -0.98,-0.85 -1.78,-0.85 -0.78,0 -1.37,0.28 -1.75,0.84 -0.39,0.55 -0.58,1.27 -0.58,2.14 0,0.91 0.2,1.64 0.6,2.21 0.4,0.57 1,0.86 1.79,0.86 0.79,0 1.37,-0.28 1.74,-0.85 0.38,-0.56 0.57,-1.27 0.57,-2.15z"/>
  <polygon class="fil4" points="123,62.33 123,51.92 126.32,51.92 126.32,59.64 130.98,59.64 130.98,62.33 "/>
  <polygon class="fil4" points="132.82,62.33 132.82,51.92 136.15,51.92 136.15,59.64 140.81,59.64 140.81,62.33 "/>
  <polygon class="fil4" points="142.65,62.33 142.65,51.92 150.79,51.92 150.79,54.35 145.74,54.35 145.74,55.98 149.94,55.98 149.94,58.25 145.74,58.25 145.74,59.9 150.79,59.9 150.79,62.33 "/>
  <path class="fil4" d="M155.7 57.07c0,0.96 0.22,1.71 0.64,2.26 0.43,0.55 1.12,0.83 2.08,0.83 0.34,0 0.65,-0.03 0.94,-0.08 0.29,-0.05 0.52,-0.11 0.69,-0.18l0 -1.37 -2.41 0 0 -2.22 5.04 0 0 5.33c-0.55,0.27 -1.21,0.51 -1.97,0.7 -0.77,0.2 -1.57,0.3 -2.4,0.3 -0.87,0 -1.66,-0.12 -2.38,-0.35 -0.72,-0.23 -1.33,-0.58 -1.84,-1.04 -0.5,-0.47 -0.9,-1.04 -1.17,-1.72 -0.28,-0.68 -0.41,-1.47 -0.41,-2.37 0,-0.87 0.14,-1.65 0.42,-2.33 0.28,-0.68 0.68,-1.26 1.2,-1.73 0.51,-0.47 1.13,-0.83 1.85,-1.09 0.71,-0.25 1.5,-0.38 2.36,-0.38 0.76,0 1.54,0.09 2.31,0.25 0.78,0.17 1.4,0.38 1.86,0.65l-0.96 2.52c-1.08,-0.52 -2.08,-0.79 -3,-0.79 -0.87,0 -1.56,0.24 -2.08,0.71 -0.51,0.47 -0.77,1.17 -0.77,2.1z"/>
  <polygon class="fil4" points="164.97,62.33 164.97,51.92 173.1,51.92 173.1,54.35 168.06,54.35 168.06,55.98 172.25,55.98 172.25,58.25 168.06,58.25 168.06,59.9 173.1,59.9 173.1,62.33 "/>
  <path class="fil4" d="M190 57.09c0,0.84 -0.15,1.61 -0.45,2.3 -0.29,0.68 -0.7,1.27 -1.21,1.75 -0.52,0.48 -1.12,0.85 -1.8,1.11 -0.68,0.26 -1.41,0.39 -2.2,0.39 -0.78,0 -1.51,-0.12 -2.18,-0.35 -0.68,-0.23 -1.27,-0.58 -1.77,-1.03 -0.51,-0.46 -0.91,-1.03 -1.2,-1.71 -0.29,-0.68 -0.43,-1.48 -0.43,-2.39 0,-0.86 0.14,-1.63 0.44,-2.31 0.3,-0.68 0.7,-1.26 1.22,-1.74 0.51,-0.48 1.11,-0.84 1.79,-1.1 0.69,-0.25 1.41,-0.38 2.18,-0.38 0.78,0 1.51,0.12 2.19,0.34 0.69,0.23 1.28,0.57 1.79,1.02 0.51,0.46 0.9,1.03 1.19,1.71 0.29,0.68 0.44,1.48 0.44,2.39zm-3.29 0.07c0,-0.91 -0.19,-1.64 -0.58,-2.2 -0.39,-0.56 -0.99,-0.85 -1.79,-0.85 -0.78,0 -1.36,0.28 -1.75,0.84 -0.38,0.55 -0.57,1.27 -0.57,2.14 0,0.91 0.2,1.64 0.6,2.21 0.39,0.57 0.99,0.86 1.79,0.86 0.78,0 1.36,-0.28 1.74,-0.85 0.38,-0.56 0.56,-1.27 0.56,-2.15z"/>
  <polygon class="fil4" points="192.13,51.92 200.11,51.92 200.11,54.35 195.24,54.35 195.24,56.18 199.24,56.18 199.24,58.48 195.37,58.48 195.37,62.33 192.13,62.33 "/>
  <path class="fil4" d="M216.27 52.33c-0.51,-0.3 -1.05,-0.54 -1.64,-0.72 -0.59,-0.17 -1.19,-0.26 -1.8,-0.26 -1.17,0 -2.11,0.37 -2.81,1.11 -0.71,0.74 -1.06,1.75 -1.06,3.05 0,1.3 0.34,2.33 1.03,3.08 0.68,0.76 1.63,1.13 2.87,1.13 0.66,0 1.3,-0.1 1.91,-0.3 0.61,-0.2 1.17,-0.47 1.67,-0.8l0.72 3.06c-0.53,0.29 -1.21,0.53 -2.03,0.71 -0.82,0.18 -1.63,0.27 -2.43,0.27 -1.08,0 -2.07,-0.16 -2.95,-0.47 -0.88,-0.31 -1.64,-0.76 -2.27,-1.36 -0.62,-0.59 -1.11,-1.33 -1.46,-2.2 -0.34,-0.88 -0.51,-1.89 -0.51,-3.04 0,-1.1 0.17,-2.09 0.5,-2.98 0.34,-0.88 0.83,-1.64 1.46,-2.26 0.63,-0.62 1.41,-1.1 2.31,-1.43 0.91,-0.34 1.92,-0.51 3.03,-0.51 0.83,0 1.63,0.1 2.41,0.29 0.77,0.19 1.47,0.43 2.09,0.74l-1.04 2.89z"/>
  <path class="fil4" d="M230.1 57.09c0,0.84 -0.15,1.61 -0.44,2.3 -0.3,0.68 -0.71,1.27 -1.22,1.75 -0.52,0.48 -1.12,0.85 -1.8,1.11 -0.68,0.26 -1.41,0.39 -2.19,0.39 -0.79,0 -1.51,-0.12 -2.19,-0.35 -0.67,-0.23 -1.26,-0.58 -1.77,-1.03 -0.51,-0.46 -0.91,-1.03 -1.2,-1.71 -0.29,-0.68 -0.43,-1.48 -0.43,-2.39 0,-0.86 0.15,-1.63 0.44,-2.31 0.3,-0.68 0.71,-1.26 1.22,-1.74 0.52,-0.48 1.11,-0.84 1.8,-1.1 0.68,-0.25 1.4,-0.38 2.17,-0.38 0.78,0 1.52,0.12 2.2,0.34 0.68,0.23 1.27,0.57 1.78,1.02 0.51,0.46 0.91,1.03 1.2,1.71 0.29,0.68 0.43,1.48 0.43,2.39zm-3.28 0.07c0,-0.91 -0.2,-1.64 -0.59,-2.2 -0.39,-0.56 -0.98,-0.85 -1.78,-0.85 -0.79,0 -1.37,0.28 -1.75,0.84 -0.39,0.55 -0.58,1.27 -0.58,2.14 0,0.91 0.2,1.64 0.6,2.21 0.4,0.57 1,0.86 1.79,0.86 0.79,0 1.37,-0.28 1.74,-0.85 0.38,-0.56 0.57,-1.27 0.57,-2.15z"/>
  <polygon class="fil4" points="242.61,62.33 242.48,55.2 240.61,62.33 237.04,62.33 235.17,55.07 235.06,62.33 231.99,62.33 232.32,51.92 237.08,51.92 238.89,59.16 240.67,51.92 245.37,51.92 245.72,62.33 "/>
  <polygon class="fil4" points="258.35,62.33 258.22,55.2 256.35,62.33 252.79,62.33 250.91,55.07 250.81,62.33 247.74,62.33 248.07,51.92 252.83,51.92 254.63,59.16 256.42,51.92 261.11,51.92 261.46,62.33 "/>
  <polygon class="fil4" points="263.72,62.33 263.72,51.92 271.86,51.92 271.86,54.35 266.81,54.35 266.81,55.98 271.01,55.98 271.01,58.25 266.81,58.25 266.81,59.9 271.86,59.9 271.86,62.33 "/>
  <path class="fil4" d="M277.38 62.33l-3.26 0 0 -10.41 4.96 0c1.46,0 2.57,0.3 3.32,0.92 0.76,0.62 1.14,1.45 1.14,2.49 0,0.65 -0.17,1.24 -0.49,1.76 -0.33,0.52 -0.83,0.92 -1.51,1.2l2.41 4.04 -3.5 0 -1.83 -3.39 -1.24 0.07 0 3.32zm1.11 -5.32c0.55,-0.02 0.98,-0.15 1.28,-0.4 0.31,-0.24 0.46,-0.61 0.46,-1.08 0,-0.44 -0.14,-0.78 -0.42,-1.01 -0.29,-0.24 -0.74,-0.36 -1.36,-0.36l-1.09 0 0 2.87 1.13 -0.02z"/>
  <path class="fil4" d="M293.56 55.09c-0.33,-0.2 -0.73,-0.37 -1.18,-0.5 -0.46,-0.13 -0.9,-0.19 -1.32,-0.19 -0.78,0 -1.39,0.24 -1.83,0.73 -0.43,0.48 -0.65,1.14 -0.65,1.95 0,0.85 0.21,1.52 0.62,2.01 0.41,0.5 1.03,0.74 1.86,0.74 0.49,0 0.95,-0.06 1.38,-0.18 0.43,-0.13 0.85,-0.31 1.27,-0.56l0.72 2.85c-0.19,0.1 -0.42,0.19 -0.69,0.27 -0.28,0.08 -0.58,0.16 -0.9,0.22 -0.32,0.07 -0.64,0.12 -0.97,0.15 -0.34,0.04 -0.66,0.06 -0.96,0.06 -1.74,0 -3.12,-0.46 -4.14,-1.38 -1.03,-0.92 -1.54,-2.29 -1.54,-4.1 0,-0.84 0.13,-1.6 0.39,-2.29 0.26,-0.68 0.64,-1.26 1.13,-1.74 0.5,-0.47 1.11,-0.84 1.83,-1.1 0.73,-0.27 1.55,-0.4 2.46,-0.4 0.67,0 1.29,0.07 1.88,0.21 0.59,0.13 1.13,0.3 1.64,0.5l-1 2.75z"/>
  <polygon class="fil4" points="296.39,62.33 296.39,51.92 304.52,51.92 304.52,54.35 299.47,54.35 299.47,55.98 303.67,55.98 303.67,58.25 299.47,58.25 299.47,59.9 304.52,59.9 304.52,62.33 "/>
  <path class="fil4" d="M102.12 84.42l-2.39 0 -2.41 -9.04 2.46 0 1.21 6.39 1.62 -6.39 2.63 0 1.65 6.39 1.21 -6.39 2.36 0 -2.41 9.04 -2.4 0 -1.75 -6.44 -1.78 6.44zm13.85 0l0 -3.98c0,-0.4 -0.08,-0.68 -0.25,-0.84 -0.17,-0.15 -0.39,-0.23 -0.66,-0.23 -0.26,0 -0.49,0.05 -0.7,0.15 -0.21,0.1 -0.39,0.22 -0.53,0.36l0 4.54 -2.24 0 0 -9.56 2.24 -0.27 -0.01 4.03c0.29,-0.34 0.63,-0.61 1.01,-0.82 0.39,-0.22 0.8,-0.32 1.24,-0.32 0.67,0 1.19,0.2 1.57,0.61 0.38,0.41 0.57,0.98 0.57,1.7l0 4.63 -2.24 0zm6.22 -8.87c0,0.39 -0.12,0.68 -0.35,0.89 -0.23,0.2 -0.56,0.3 -0.97,0.3 -0.4,0 -0.72,-0.1 -0.96,-0.3 -0.24,-0.21 -0.35,-0.5 -0.35,-0.89 0,-0.39 0.11,-0.69 0.35,-0.89 0.24,-0.2 0.56,-0.31 0.96,-0.31 0.41,0 0.74,0.11 0.97,0.31 0.23,0.2 0.35,0.5 0.35,0.89zm-2.43 8.87l0 -6.61 2.24 -0.27 0 6.88 -2.24 0zm8.15 -0.03c-0.26,0.08 -0.51,0.14 -0.76,0.18 -0.24,0.04 -0.53,0.06 -0.87,0.06 -0.83,0 -1.46,-0.18 -1.89,-0.56 -0.43,-0.38 -0.62,-1 -0.58,-1.88l0.1 -2.56 -1.02 -0.17 0.05 -1.42 1.01 -0.33 0.03 -1.53 2.15 0 -0.01 1.6 1.68 0 -0.05 1.75 -1.79 0 -0.07 2.42c-0.02,0.3 0.05,0.53 0.21,0.67 0.17,0.14 0.39,0.21 0.67,0.21 0.13,0 0.28,-0.02 0.43,-0.05 0.15,-0.04 0.3,-0.08 0.45,-0.13l0.26 1.74zm2.86 -2.81c0.04,0.46 0.21,0.81 0.51,1.05 0.3,0.25 0.72,0.37 1.27,0.37 0.37,0 0.74,-0.06 1.12,-0.18 0.38,-0.12 0.74,-0.28 1.08,-0.47l0.22 1.72c-0.34,0.17 -0.74,0.31 -1.2,0.41 -0.45,0.09 -0.93,0.14 -1.42,0.14 -0.57,0 -1.08,-0.08 -1.55,-0.23 -0.46,-0.16 -0.85,-0.38 -1.18,-0.68 -0.33,-0.3 -0.58,-0.67 -0.76,-1.11 -0.18,-0.44 -0.27,-0.93 -0.27,-1.49 0,-0.55 0.09,-1.05 0.27,-1.5 0.18,-0.45 0.43,-0.83 0.75,-1.14 0.32,-0.31 0.71,-0.56 1.16,-0.73 0.45,-0.18 0.93,-0.26 1.46,-0.26 0.96,0 1.69,0.26 2.19,0.78 0.51,0.52 0.76,1.2 0.76,2.04 0,0.18 -0.01,0.39 -0.03,0.62 -0.03,0.23 -0.06,0.42 -0.11,0.56l-4.27 0.07 0 0.03zm2.35 -1.15l0 -0.13c0,-0.41 -0.09,-0.72 -0.26,-0.95 -0.17,-0.23 -0.42,-0.34 -0.77,-0.34 -0.39,0 -0.69,0.14 -0.91,0.43 -0.22,0.28 -0.35,0.62 -0.39,1l2.33 -0.01zm8.16 -5.74c0,0 -0.02,0.09 -0.06,0.29 -0.04,0.19 -0.09,0.4 -0.14,0.63 -0.06,0.23 -0.11,0.44 -0.15,0.63 -0.04,0.19 -0.06,0.28 -0.06,0.28 -0.18,-0.06 -0.35,-0.12 -0.53,-0.18 -0.18,-0.05 -0.38,-0.08 -0.6,-0.08 -0.29,0 -0.49,0.09 -0.61,0.25 -0.12,0.16 -0.17,0.41 -0.17,0.74l0 0.53 1.88 0 -0.05 1.75 -1.73 0 0 4.89 -2.24 0 0 -4.87 -1.16 -0.09 0.06 -1.42 1.08 -0.32 0.02 -0.57c0.03,-0.99 0.26,-1.7 0.7,-2.14 0.44,-0.44 1.09,-0.66 1.94,-0.66 0.42,0 0.78,0.04 1.09,0.11 0.31,0.08 0.55,0.15 0.73,0.23zm2.95 0.86c0,0.39 -0.11,0.68 -0.34,0.89 -0.23,0.2 -0.56,0.3 -0.97,0.3 -0.41,0 -0.73,-0.1 -0.96,-0.3 -0.24,-0.21 -0.36,-0.5 -0.36,-0.89 0,-0.39 0.12,-0.69 0.36,-0.89 0.23,-0.2 0.55,-0.31 0.96,-0.31 0.41,0 0.74,0.11 0.97,0.31 0.23,0.2 0.34,0.5 0.34,0.89zm-2.42 8.87l0 -6.61 2.24 -0.27 0 6.88 -2.24 0zm5.63 -2.84c0.04,0.46 0.21,0.81 0.51,1.05 0.3,0.25 0.72,0.37 1.27,0.37 0.37,0 0.74,-0.06 1.12,-0.18 0.38,-0.12 0.74,-0.28 1.08,-0.47l0.22 1.72c-0.34,0.17 -0.74,0.31 -1.2,0.41 -0.45,0.09 -0.93,0.14 -1.42,0.14 -0.57,0 -1.08,-0.08 -1.55,-0.23 -0.46,-0.16 -0.86,-0.38 -1.18,-0.68 -0.33,-0.3 -0.58,-0.67 -0.76,-1.11 -0.18,-0.44 -0.27,-0.93 -0.27,-1.49 0,-0.55 0.09,-1.05 0.27,-1.5 0.18,-0.45 0.43,-0.83 0.75,-1.14 0.32,-0.31 0.71,-0.56 1.16,-0.73 0.44,-0.18 0.93,-0.26 1.46,-0.26 0.96,0 1.69,0.26 2.19,0.78 0.51,0.52 0.76,1.2 0.76,2.04 0,0.18 -0.01,0.39 -0.03,0.62 -0.03,0.23 -0.06,0.42 -0.11,0.56l-4.27 0.07 0 0.03zm2.35 -1.15l0 -0.13c0,-0.41 -0.09,-0.72 -0.26,-0.95 -0.17,-0.23 -0.42,-0.34 -0.77,-0.34 -0.39,0 -0.69,0.14 -0.91,0.43 -0.22,0.28 -0.35,0.62 -0.39,1l2.33 -0.01zm3.32 3.99l0 -9.56 2.24 -0.27 0 9.83 -2.24 0zm8.21 -9.56l2.24 -0.27 0 9.83 -2.24 0 0.02 -0.7c-0.22,0.23 -0.47,0.43 -0.78,0.62 -0.31,0.19 -0.68,0.28 -1.1,0.28 -0.42,0 -0.8,-0.08 -1.15,-0.25 -0.35,-0.16 -0.66,-0.39 -0.91,-0.7 -0.26,-0.3 -0.46,-0.67 -0.6,-1.1 -0.15,-0.42 -0.22,-0.9 -0.22,-1.43 0,-0.56 0.09,-1.07 0.28,-1.52 0.18,-0.44 0.42,-0.83 0.73,-1.14 0.31,-0.32 0.66,-0.57 1.07,-0.73 0.4,-0.17 0.83,-0.26 1.28,-0.26 0.48,0 0.94,0.08 1.38,0.23l0 -2.86zm0 4.57c-0.12,-0.09 -0.27,-0.16 -0.44,-0.21 -0.17,-0.05 -0.36,-0.08 -0.57,-0.08 -0.47,0 -0.83,0.17 -1.1,0.52 -0.26,0.35 -0.39,0.8 -0.39,1.36 0,0.58 0.13,1.03 0.39,1.34 0.25,0.32 0.59,0.48 1,0.48 0.25,0 0.46,-0.04 0.63,-0.12 0.18,-0.08 0.34,-0.2 0.48,-0.34l0 -2.95zm3.4 3.85c0.05,-0.4 0.22,-0.72 0.5,-0.96 0.28,-0.24 0.63,-0.36 1.05,-0.36 0.25,0 0.48,0.05 0.69,0.15 0.21,0.1 0.4,0.24 0.55,0.41 0.15,0.16 0.28,0.36 0.36,0.58 0.09,0.22 0.13,0.46 0.13,0.71 0,0.33 -0.07,0.63 -0.2,0.92 -0.14,0.28 -0.32,0.55 -0.54,0.79 -0.23,0.25 -0.49,0.47 -0.78,0.68 -0.3,0.2 -0.6,0.39 -0.92,0.56l-0.98 -0.87c0.4,-0.28 0.74,-0.54 1.02,-0.79 0.28,-0.25 0.42,-0.5 0.42,-0.74 0,-0.19 -0.09,-0.37 -0.27,-0.54 -0.19,-0.16 -0.53,-0.34 -1.03,-0.54zm12.78 -3.59c0.58,0.11 1.05,0.34 1.41,0.71 0.36,0.36 0.54,0.83 0.54,1.39 0,0.35 -0.05,0.69 -0.16,1.02 -0.12,0.32 -0.31,0.6 -0.58,0.83 -0.28,0.24 -0.65,0.43 -1.12,0.57 -0.48,0.14 -1.07,0.21 -1.8,0.21l-3.94 0 0 -9.04 3.92 0c0.67,0 1.23,0.06 1.66,0.18 0.44,0.12 0.79,0.29 1.05,0.5 0.26,0.21 0.44,0.46 0.55,0.75 0.1,0.28 0.15,0.59 0.15,0.93 0,0.52 -0.15,0.94 -0.45,1.26 -0.3,0.31 -0.71,0.55 -1.23,0.69zm-0.62 -1.58c0,-0.68 -0.44,-1.02 -1.32,-1.02l-1.47 0 0 2.09 1.35 0c0.48,0 0.84,-0.09 1.08,-0.28 0.24,-0.19 0.36,-0.45 0.36,-0.79zm0.26 3.55c0,-0.39 -0.14,-0.66 -0.43,-0.81 -0.28,-0.16 -0.67,-0.23 -1.15,-0.23l-1.47 0 0 2.09 1.54 0c0.52,0 0.9,-0.08 1.14,-0.25 0.25,-0.17 0.37,-0.44 0.37,-0.8zm7.14 -0.24c-0.69,0.08 -1.18,0.19 -1.46,0.34 -0.28,0.15 -0.42,0.38 -0.42,0.68 0,0.22 0.08,0.39 0.23,0.52 0.16,0.13 0.36,0.2 0.61,0.2 0.22,0 0.42,-0.04 0.6,-0.12 0.18,-0.09 0.32,-0.19 0.44,-0.33l0 -1.29zm0.02 2.19c-0.25,0.28 -0.51,0.52 -0.81,0.72 -0.29,0.2 -0.67,0.3 -1.13,0.3 -0.29,0 -0.56,-0.04 -0.81,-0.14 -0.25,-0.1 -0.47,-0.23 -0.65,-0.4 -0.19,-0.17 -0.33,-0.36 -0.44,-0.59 -0.1,-0.23 -0.16,-0.47 -0.16,-0.73 0,-0.32 0.07,-0.62 0.2,-0.9 0.13,-0.28 0.35,-0.52 0.66,-0.73 0.31,-0.22 0.72,-0.39 1.23,-0.52 0.51,-0.14 1.14,-0.22 1.89,-0.24l0 -0.13c0,-0.35 -0.09,-0.61 -0.28,-0.78 -0.19,-0.16 -0.49,-0.24 -0.9,-0.24 -0.35,0 -0.72,0.06 -1.11,0.19 -0.39,0.13 -0.78,0.29 -1.18,0.49l-0.46 -1.64c0.36,-0.19 0.8,-0.37 1.34,-0.54 0.53,-0.17 1.12,-0.25 1.75,-0.25 0.58,0 1.07,0.06 1.46,0.19 0.4,0.13 0.72,0.32 0.96,0.57 0.24,0.25 0.41,0.56 0.51,0.92 0.1,0.36 0.15,0.78 0.14,1.25l-0.02 2c0,0.23 0.04,0.37 0.1,0.43 0.07,0.06 0.22,0.1 0.45,0.12l-0.21 1.59c-0.74,0.09 -1.3,0.05 -1.68,-0.13 -0.39,-0.17 -0.66,-0.45 -0.81,-0.81l-0.04 0zm8.13 0.81l0 -3.98c0,-0.4 -0.08,-0.68 -0.25,-0.84 -0.16,-0.15 -0.39,-0.23 -0.69,-0.23 -0.24,0 -0.47,0.05 -0.67,0.15 -0.21,0.1 -0.38,0.22 -0.53,0.36l0 4.54 -2.24 0 0 -6.61 2.24 -0.27 -0.01 1.09c0.3,-0.33 0.64,-0.61 1.02,-0.83 0.38,-0.21 0.79,-0.32 1.22,-0.32 0.68,0 1.21,0.2 1.59,0.61 0.38,0.41 0.57,0.98 0.57,1.7l0 4.63 -2.25 0zm5.56 -4.33c0,0.36 0.08,0.65 0.26,0.86 0.17,0.22 0.44,0.33 0.79,0.33 0.34,0 0.59,-0.11 0.75,-0.34 0.16,-0.23 0.23,-0.53 0.23,-0.9 0,-0.36 -0.08,-0.65 -0.25,-0.86 -0.17,-0.22 -0.42,-0.33 -0.77,-0.33 -0.32,0 -0.57,0.11 -0.75,0.34 -0.17,0.23 -0.26,0.53 -0.26,0.9zm-0.1 5.02c-0.16,0.08 -0.29,0.18 -0.39,0.3 -0.1,0.12 -0.15,0.27 -0.15,0.44 0,0.26 0.15,0.47 0.46,0.63 0.3,0.17 0.71,0.25 1.23,0.25 0.27,0 0.52,-0.02 0.75,-0.06 0.23,-0.04 0.44,-0.1 0.61,-0.18 0.17,-0.08 0.31,-0.18 0.41,-0.29 0.09,-0.11 0.14,-0.24 0.14,-0.38 0,-0.27 -0.14,-0.45 -0.43,-0.54 -0.28,-0.08 -0.72,-0.13 -1.3,-0.13 -0.22,0 -0.46,0 -0.73,-0.01 -0.28,-0.01 -0.48,-0.02 -0.6,-0.03zm-0.89 -0.24c-0.3,-0.09 -0.56,-0.24 -0.81,-0.45 -0.24,-0.2 -0.36,-0.46 -0.36,-0.77 0,-0.32 0.13,-0.62 0.39,-0.9 0.26,-0.27 0.6,-0.47 1,-0.59 -0.4,-0.19 -0.73,-0.47 -0.98,-0.82 -0.25,-0.36 -0.38,-0.78 -0.38,-1.26 0,-0.37 0.07,-0.71 0.22,-1.03 0.14,-0.31 0.35,-0.59 0.63,-0.82 0.27,-0.23 0.61,-0.41 1,-0.55 0.4,-0.14 0.85,-0.2 1.35,-0.2 0.4,0 0.78,0.05 1.14,0.15 0.36,0.1 0.66,0.21 0.91,0.32l1.89 -0.15 0.1 1.8 -1.3 -0.2c0.06,0.07 0.11,0.18 0.14,0.33 0.03,0.16 0.05,0.29 0.05,0.41 0,0.34 -0.07,0.65 -0.22,0.95 -0.14,0.3 -0.34,0.56 -0.6,0.78 -0.26,0.21 -0.57,0.38 -0.93,0.51 -0.37,0.12 -0.76,0.19 -1.2,0.19 -0.15,0 -0.3,-0.01 -0.44,-0.03 -0.14,-0.02 -0.29,-0.05 -0.45,-0.07 -0.1,0.04 -0.19,0.11 -0.27,0.19 -0.08,0.08 -0.13,0.18 -0.13,0.3 0,0.15 0.1,0.26 0.29,0.32 0.18,0.07 0.5,0.1 0.94,0.1l0.8 0c0.46,0 0.88,0.03 1.26,0.09 0.39,0.06 0.71,0.17 0.99,0.32 0.27,0.15 0.48,0.34 0.63,0.58 0.15,0.24 0.23,0.54 0.23,0.9 0,0.42 -0.12,0.8 -0.35,1.14 -0.23,0.34 -0.54,0.63 -0.93,0.87 -0.39,0.24 -0.84,0.43 -1.35,0.56 -0.5,0.13 -1.03,0.19 -1.58,0.19 -0.45,0 -0.88,-0.03 -1.28,-0.11 -0.4,-0.07 -0.75,-0.18 -1.04,-0.32 -0.29,-0.15 -0.53,-0.33 -0.7,-0.54 -0.17,-0.22 -0.26,-0.48 -0.26,-0.78 0,-0.34 0.13,-0.64 0.4,-0.91 0.26,-0.27 0.66,-0.44 1.2,-0.5zm10.47 -3.45c-0.69,0.08 -1.18,0.19 -1.46,0.34 -0.28,0.15 -0.42,0.38 -0.42,0.68 0,0.22 0.08,0.39 0.23,0.52 0.16,0.13 0.36,0.2 0.61,0.2 0.22,0 0.42,-0.04 0.6,-0.12 0.18,-0.09 0.32,-0.19 0.44,-0.33l0 -1.29zm0.01 2.19c-0.24,0.28 -0.5,0.52 -0.8,0.72 -0.29,0.2 -0.67,0.3 -1.13,0.3 -0.29,0 -0.56,-0.04 -0.81,-0.14 -0.25,-0.1 -0.47,-0.23 -0.65,-0.4 -0.19,-0.17 -0.33,-0.36 -0.44,-0.59 -0.1,-0.23 -0.16,-0.47 -0.16,-0.73 0,-0.32 0.07,-0.62 0.2,-0.9 0.13,-0.28 0.35,-0.52 0.66,-0.73 0.31,-0.22 0.72,-0.39 1.23,-0.52 0.51,-0.14 1.14,-0.22 1.89,-0.24l0 -0.13c0,-0.35 -0.09,-0.61 -0.28,-0.78 -0.19,-0.16 -0.49,-0.24 -0.91,-0.24 -0.34,0 -0.71,0.06 -1.1,0.19 -0.39,0.13 -0.78,0.29 -1.18,0.49l-0.46 -1.64c0.36,-0.19 0.8,-0.37 1.34,-0.54 0.53,-0.17 1.12,-0.25 1.75,-0.25 0.58,0 1.07,0.06 1.46,0.19 0.4,0.13 0.72,0.32 0.96,0.57 0.24,0.25 0.41,0.56 0.51,0.92 0.1,0.36 0.15,0.78 0.14,1.25l-0.02 2c0,0.23 0.04,0.37 0.1,0.43 0.07,0.06 0.22,0.1 0.45,0.12l-0.22 1.59c-0.73,0.09 -1.29,0.05 -1.67,-0.13 -0.39,-0.17 -0.66,-0.45 -0.81,-0.81l-0.05 0zm3.76 0.81l0 -9.56 2.24 -0.27 0 9.83 -2.24 0zm10.67 -3.39c0,0.56 -0.09,1.07 -0.29,1.52 -0.19,0.44 -0.45,0.82 -0.78,1.13 -0.32,0.31 -0.71,0.55 -1.15,0.71 -0.45,0.16 -0.92,0.24 -1.42,0.24 -0.5,0 -0.97,-0.07 -1.41,-0.23 -0.44,-0.15 -0.82,-0.38 -1.13,-0.68 -0.32,-0.31 -0.57,-0.68 -0.76,-1.12 -0.18,-0.45 -0.27,-0.95 -0.27,-1.52 0,-0.57 0.09,-1.08 0.28,-1.53 0.19,-0.45 0.45,-0.82 0.78,-1.13 0.33,-0.31 0.72,-0.54 1.17,-0.7 0.44,-0.16 0.92,-0.24 1.43,-0.24 0.51,0 0.98,0.08 1.41,0.24 0.44,0.16 0.81,0.39 1.13,0.69 0.32,0.3 0.57,0.67 0.75,1.11 0.17,0.44 0.26,0.95 0.26,1.51zm-2.21 0.03c0,-0.57 -0.12,-1.02 -0.35,-1.37 -0.24,-0.33 -0.59,-0.51 -1.05,-0.51 -0.46,0 -0.81,0.18 -1.04,0.51 -0.23,0.35 -0.35,0.81 -0.35,1.38 0,0.58 0.12,1.03 0.36,1.36 0.23,0.33 0.58,0.5 1.04,0.5 0.47,0 0.81,-0.17 1.04,-0.5 0.24,-0.34 0.35,-0.8 0.35,-1.37zm5.68 3.36l-2.24 0 0 -6.61 2.24 -0.27 0 0.98c0.4,-0.7 0.94,-1.04 1.62,-1.04 0.39,0 0.76,0.09 1.12,0.27l-0.45 1.97c-0.27,-0.14 -0.55,-0.2 -0.84,-0.2 -0.28,0 -0.54,0.07 -0.78,0.22 -0.24,0.15 -0.46,0.4 -0.67,0.76l0 3.92zm5.24 -2.84c0.04,0.46 0.2,0.81 0.5,1.05 0.3,0.25 0.73,0.37 1.28,0.37 0.36,0 0.73,-0.06 1.12,-0.18 0.38,-0.12 0.74,-0.28 1.07,-0.47l0.22 1.72c-0.34,0.17 -0.73,0.31 -1.19,0.41 -0.46,0.09 -0.94,0.14 -1.43,0.14 -0.57,0 -1.08,-0.08 -1.54,-0.23 -0.47,-0.16 -0.86,-0.38 -1.19,-0.68 -0.33,-0.3 -0.58,-0.67 -0.76,-1.11 -0.18,-0.44 -0.27,-0.93 -0.27,-1.49 0,-0.55 0.09,-1.05 0.27,-1.5 0.18,-0.45 0.43,-0.83 0.75,-1.14 0.33,-0.31 0.71,-0.56 1.16,-0.73 0.45,-0.18 0.94,-0.26 1.47,-0.26 0.95,0 1.68,0.26 2.19,0.78 0.5,0.52 0.76,1.2 0.76,2.04 0,0.18 -0.02,0.39 -0.04,0.62 -0.02,0.23 -0.06,0.42 -0.11,0.56l-4.26 0.07 0 0.03zm2.34 -1.15l0 -0.13c0,-0.41 -0.08,-0.72 -0.25,-0.95 -0.17,-0.23 -0.43,-0.34 -0.78,-0.34 -0.38,0 -0.69,0.14 -0.91,0.43 -0.22,0.28 -0.35,0.62 -0.39,1l2.33 -0.01z"/>
 </g>
</svg>
